<?xml version="1.0" encoding="UTF-8"?>
<svg id="Layer_1" data-name="Layer 1" xmlns="http://www.w3.org/2000/svg" xmlns:xlink="http://www.w3.org/1999/xlink" viewBox="0 0 1920 1080">
  <defs>
    <style>
      .cls-1 {
        fill: url(#radial-gradient-3);
      }

      .cls-2 {
        fill: url(#radial-gradient-2);
      }

      .cls-3 {
        fill: url(#radial-gradient);
      }
    </style>
    <radialGradient id="radial-gradient" cx="1478.54" cy="749.02" fx="1406.72" fy="749.02" r="127.14" gradientTransform="translate(-884.65 -420.83) scale(1.62)" gradientUnits="userSpaceOnUse">
      <stop offset="0" stop-color="#ac6066"/>
      <stop offset=".48" stop-color="#bc6165"/>
      <stop offset=".86" stop-color="#ea7274"/>
      <stop offset="1" stop-color="#f48789"/>
    </radialGradient>
    <radialGradient id="radial-gradient-2" cx="641" cy="931.56" fx="641" fy="931.56" r="167.74" gradientUnits="userSpaceOnUse">
      <stop offset="0" stop-color="#2d4454"/>
      <stop offset=".49" stop-color="#3d576a"/>
      <stop offset=".86" stop-color="#566d7c"/>
    </radialGradient>
    <radialGradient id="radial-gradient-3" cx="1153.7" cy="596.36" fx="1153.7" fy="596.36" r="227.04" gradientTransform="translate(2373.89 -111.81) rotate(143.24) scale(.78)" xlink:href="#radial-gradient-2"/>
  </defs>
  <path class="cls-3" d="M1306.47,765.74c0-87.35,97.05-194.11,194.11-174.7,97.05,19.41,242.63,135.88,223.22,262.04-19.41,126.17-164.99,184.4-281.46,126.17-116.46-58.23-135.88-174.7-135.88-213.52Z"/>
  <path class="cls-2" d="M741.53,814.12c-5.69-5.25-12.38-10.26-20.21-14.9-3.93-2.33-7.89-4.53-11.89-6.59-11.72-6.04-23.69-10.85-35.63-14.02-11.94-3.18-23.85-4.72-35.45-4.22-11.59.5-22.87,3.05-33.54,8.05-.03,0-.07,0-.1,0-22.37,1.76-14.97-31.99-58.14-28.9-4.49.32-8.84.93-13.03,1.81-35.04,7.35-58.24,33.8-45.62,72.18.39,1.18.81,2.36,1.26,3.56,15.47,40.86,46.4,21.76,61.76,42.23.64.86,1.26,1.78,1.84,2.78.53,37.27,23.61,70.28,50.02,92.4,10.49,8.79,21.74,16.32,32.71,22.53l.44.67c14.03,6.18,23.39,12.59,29.63,19.05,15.26,15.77,11.88,31.8,12.45,45.34.16,3.81.64,7.43,1.93,10.79,4.66,12.12,13.95,29.07,30.27,37.59,10.83,5.65,24.76,7.6,42.48,1.96,12.47-3.97,21.73-9.18,28.48-15.14,21.95-19.36,17.53-46.63,11.03-64.98-2.45-6.93-5.2-12.58-6.94-16.05-5.28-10.56-18.48-18.25-23.57-35.93-2.38-8.28-2.99-18.75-.17-32.74,2.19-4.66,7.27-31.25,8.37-36.02.9-3.91,1.75-9.01,2.12-14.94,1.29-20.61-3.13-51.24-30.53-76.49Z"/>
  <path class="cls-1" d="M1367.21,215.86c8.1.84,16.89.85,26.42-.16,4.78-.51,9.51-1.15,14.17-1.93,13.67-2.29,26.8-5.77,38.86-10.62s23.08-11.04,32.53-18.77,17.36-16.97,23.21-27.9c.02-.02.06-.04.08-.06,17.75-15.57,32.76,17.54,67.2-12.26,3.58-3.1,6.87-6.35,9.85-9.73,24.91-28.27,27.8-65.16-7-89.57-1.07-.75-2.17-1.48-3.3-2.21-38.77-24.7-52.81,10.88-78.65,3.3-1.08-.32-2.18-.71-3.3-1.18-23.92-31.08-64.15-44.37-100.35-46.39-14.38-.8-28.6-.06-41.76,1.61l-.8-.29c-15.72,3.62-27.65,4.12-36.97,2.61-22.79-3.69-30.04-19.32-39.05-30.38-2.54-3.11-5.21-5.86-8.42-7.88-11.56-7.28-30.06-15.72-49.19-12.62-12.69,2.05-25.65,9.19-37.04,25.1-8.01,11.19-12.53,21.42-14.48,30.69-6.31,30.14,14.59,50.34,31.62,61.72,6.43,4.29,12.31,7.33,15.96,9.16,11.1,5.58,27.07,3.75,42.49,15.45,7.22,5.48,14.33,13.93,20.76,27.49,1.09,5.31,13.55,30.92,15.63,35.63,1.7,3.86,4.2,8.69,7.62,13.92,11.89,18.19,34.9,41.22,73.9,45.25Z"/>
</svg>