<?xml version="1.0" encoding="UTF-8"?>
<svg id="Layer_1" data-name="Layer 1" xmlns="http://www.w3.org/2000/svg" xmlns:xlink="http://www.w3.org/1999/xlink" viewBox="0 0 1920 1080">
  <defs>
    <style>
      .cls-1 {
        fill: url(#radial-gradient-7);
      }

      .cls-2 {
        fill: url(#radial-gradient-6);
      }

      .cls-3 {
        fill: url(#radial-gradient-5);
      }

      .cls-4 {
        fill: url(#radial-gradient-4);
      }

      .cls-5 {
        fill: url(#radial-gradient-9);
      }

      .cls-6 {
        fill: url(#radial-gradient-8);
      }

      .cls-7 {
        fill: url(#radial-gradient-3);
      }

      .cls-8 {
        fill: url(#radial-gradient-2);
      }

      .cls-9 {
        fill: url(#radial-gradient);
      }

      .cls-10 {
        fill: #337d91;
      }
    </style>
    <radialGradient id="radial-gradient" cx="-3248.72" cy="2776.8" fx="-3351.6" fy="2831.82" r="153.05" gradientTransform="translate(1675.51 -1146.44) scale(.47)" gradientUnits="userSpaceOnUse">
      <stop offset="0" stop-color="#ac6066"/>
      <stop offset=".48" stop-color="#bc6165"/>
      <stop offset=".86" stop-color="#ea7274"/>
    </radialGradient>
    <radialGradient id="radial-gradient-2" cx="609.23" cy="461.02" fx="609.23" fy="461.02" r="1.47" gradientTransform="matrix(1,0,0,1,0,0)" xlink:href="#radial-gradient"/>
    <radialGradient id="radial-gradient-3" cx="41.28" cy="664.26" fx="41.28" fy="664.26" r="1.47" gradientTransform="matrix(1,0,0,1,0,0)" xlink:href="#radial-gradient"/>
    <radialGradient id="radial-gradient-4" cx="-2607.35" cy="2907.65" fx="-2642.27" fy="2926.32" r="51.95" xlink:href="#radial-gradient"/>
    <radialGradient id="radial-gradient-5" cx="-2572.06" cy="2838.72" fx="-2589.44" fy="2848.02" r="25.86" xlink:href="#radial-gradient"/>
    <radialGradient id="radial-gradient-6" cx="-412.97" cy="2678.13" fx="-447.89" fy="2696.8" r="51.95" gradientTransform="translate(249.42 -98.49) rotate(-90) scale(.47)" xlink:href="#radial-gradient"/>
    <radialGradient id="radial-gradient-7" cx="-377.68" cy="2609.2" fx="-395.06" fy="2618.5" r="25.86" gradientTransform="translate(249.42 -98.49) rotate(-90) scale(.47)" xlink:href="#radial-gradient"/>
    <radialGradient id="radial-gradient-8" cx="178.94" cy="911.03" fx="178.94" fy="911.03" r="18.6" gradientTransform="matrix(1,0,0,1,0,0)" xlink:href="#radial-gradient"/>
    <radialGradient id="radial-gradient-9" cx="138.88" cy="850.42" fx="138.88" fy="850.42" r="11.38" gradientUnits="userSpaceOnUse">
      <stop offset="0" stop-color="#2d4454"/>
      <stop offset=".49" stop-color="#3d576a"/>
      <stop offset=".86" stop-color="#566d7c"/>
    </radialGradient>
  </defs>
  <path class="cls-9" d="M105.05,137.32c0-25.08,36.47-47.53,64.33-41.96,27.87,5.57,52.39,27.33,46.82,63.56-5.57,36.23-47.37,52.95-80.81,36.23-33.44-16.72-30.34-46.68-30.34-57.83Z"/>
  <path class="cls-8" d="M609.23,462.52c1.93,0,1.93-3,0-3s-1.93,3,0,3h0Z"/>
  <path class="cls-7" d="M41.28,665.76c1.93,0,1.93-3,0-3s-1.93,3,0,3h0Z"/>
  <path class="cls-4" d="M441,205.43c0-8.51,12.38-16.13,21.84-14.24s17.78,9.28,15.89,21.57c-1.89,12.3-16.08,17.97-27.43,12.3-11.35-5.68-10.3-15.85-10.3-19.63Z"/>
  <path class="cls-3" d="M466.99,175.13c0-4.24,6.16-8.03,10.87-7.09s8.85,4.62,7.91,10.74-8,8.95-13.66,6.12-5.13-7.89-5.13-9.77Z"/>
  <path class="cls-2" d="M1494.29,113.02c-8.51,0-16.13-12.38-14.24-21.84s9.28-17.78,21.57-15.89c12.3,1.89,17.97,16.08,12.3,27.43s-15.85,10.3-19.63,10.3Z"/>
  <path class="cls-1" d="M1463.99,87.03c-4.24,0-8.03-6.16-7.09-10.87s4.62-8.85,10.74-7.91,8.95,8,6.12,13.66-7.89,5.13-9.77,5.13Z"/>
  <path class="cls-10" d="M1763.29,693.02c-8.51,0-16.13-12.38-14.24-21.84s9.28-17.78,21.57-15.89c12.3,1.89,17.97,16.08,12.3,27.43s-15.85,10.3-19.63,10.3Z"/>
  <path class="cls-10" d="M775.29,1019.02c-8.51,0-16.13-12.38-14.24-21.84s9.28-17.78,21.57-15.89c12.3,1.89,17.97,16.08,12.3,27.43s-15.85,10.3-19.63,10.3Z"/>
  <path class="cls-6" d="M175.29,930.02c-8.51,0-16.13-12.38-14.24-21.84s9.28-17.78,21.57-15.89c12.3,1.89,17.97,16.08,12.3,27.43s-15.85,10.3-19.63,10.3Z"/>
  <path class="cls-10" d="M627.64,869.03c-5.21,0-9.87-7.57-8.71-13.36s5.67-10.88,13.2-9.72c7.52,1.16,10.99,9.84,7.52,16.78s-9.69,6.3-12.01,6.3Z"/>
  <path class="cls-5" d="M136.64,862.03c-5.21,0-9.87-7.57-8.71-13.36s5.67-10.88,13.2-9.72c7.52,1.16,10.99,9.84,7.52,16.78s-9.69,6.3-12.01,6.3Z"/>
  <path class="cls-10" d="M1735.04,667.03c-5.44,0-10.31-7.91-9.1-13.96s5.93-11.37,13.79-10.16,11.49,10.28,7.86,17.53c-3.63,7.25-10.13,6.58-12.55,6.58Z"/>
  <path class="cls-10" d="M1747.45,625.03c-3.33,0-6.32-4.85-5.58-8.55s3.63-6.97,8.45-6.22,7.04,6.3,4.82,10.74-6.21,4.03-7.69,4.03Z"/>
</svg>